<?xml version="1.0" encoding="utf-8"?>
<!-- Generator: Adobe Illustrator 16.0.0, SVG Export Plug-In . SVG Version: 6.00 Build 0)  -->
<!DOCTYPE svg PUBLIC "-//W3C//DTD SVG 1.1//EN" "http://www.w3.org/Graphics/SVG/1.1/DTD/svg11.dtd">
<svg version="1.1" id="图层_1" xmlns="http://www.w3.org/2000/svg" xmlns:xlink="http://www.w3.org/1999/xlink" x="0px" y="0px"
	 width="270px" height="270px" viewBox="0 0 270 270" enable-background="new 0 0 270 270" xml:space="preserve">
<g display="none">
	<g display="inline">
		<g>
			<g>
				<g>
					<g>
						<path fill="#00FF4E" d="M134.812,239.189c-57.562,0-104.378-46.815-104.378-104.377S77.25,30.434,134.812,30.434
							S239.189,77.25,239.189,134.812C239.115,192.374,192.299,239.189,134.812,239.189z M134.812,32.613
							c-56.359,0-102.274,45.839-102.274,102.274c0,56.36,45.839,102.274,102.274,102.274c56.36,0,102.274-45.839,102.274-102.274
							C237.086,78.528,191.172,32.613,134.812,32.613z"/>
					</g>
					<g>
						<path fill="#00FF4E" stroke="#FFFFFF" stroke-width="1.1284" stroke-miterlimit="10" d="M135.038,239.34
							c-57.562,0-104.378-46.815-104.378-104.377S77.476,30.584,135.038,30.584S239.416,77.4,239.416,134.962
							C239.34,192.524,192.524,239.34,135.038,239.34z M135.038,32.764c-56.359,0-102.274,45.839-102.274,102.274
							c0,56.359,45.839,102.274,102.274,102.274c56.359,0,102.274-45.839,102.274-102.274
							C237.236,78.603,191.396,32.764,135.038,32.764z"/>
					</g>
				</g>
			</g>
		</g>
	</g>
</g>
<path display="none" fill="#00FF4E" d="M135.038,20.515c0.526,0,0.902,0.602,0.902,1.278v19.763c0,0.676-0.451,1.278-0.902,1.278
	l0,0c-0.526,0-0.902-0.602-0.902-1.278V21.792C134.061,21.041,134.512,20.515,135.038,20.515L135.038,20.515z"/>
<path display="none" fill="#00FF4E" d="M135.038,226.941c0.526,0,0.902,0.602,0.902,1.277v19.764c0,0.676-0.451,1.277-0.902,1.277
	l0,0c-0.526,0-0.902-0.602-0.902-1.277v-19.764C134.061,227.543,134.512,226.941,135.038,226.941L135.038,226.941z"/>
<path display="none" fill="#00FF4E" d="M20.665,135.038c0-0.526,0.602-0.902,1.278-0.902h19.763c0.676,0,1.277,0.451,1.277,0.902
	l0,0c0,0.526-0.601,0.902-1.277,0.902H21.943C21.191,135.939,20.665,135.488,20.665,135.038L20.665,135.038z"/>
<path display="none" fill="#00FF4E" d="M227.393,135.038c0-0.526,0.601-0.902,1.277-0.902h19.764c0.676,0,1.277,0.451,1.277,0.902
	l0,0c0,0.526-0.602,0.902-1.277,0.902H228.67C227.993,135.939,227.393,135.488,227.393,135.038L227.393,135.038z"/>
<g display="none">
	<path display="inline" fill="#00FF4E" d="M0,127.898h3.532l0.902,6.463l0.601,4.509H5.11c0.301-1.503,0.526-3.006,0.827-4.509
		l1.428-6.463h2.855l1.503,6.463c0.301,1.428,0.526,3.006,0.827,4.509h0.075c0.15-1.503,0.376-3.006,0.526-4.509l0.902-6.463h3.231
		l-2.48,14.203h-4.283l-1.277-6.237c-0.226-1.127-0.451-2.254-0.526-3.307H8.642c-0.15,1.052-0.375,2.254-0.526,3.307l-1.277,6.237
		H2.63L0,127.898z"/>
</g>
<g display="none">
	<path display="inline" fill="#00FF4E" d="M260.982,128.049h8.867v2.781h-5.485v2.555h4.659v2.78h-4.659v2.932h5.711v2.78h-9.018"/>
</g>
<path display="none" fill="#00FF4E" d="M143.529,18.261h-4.133l-9.018-13.226h-0.15v13.226h-3.757V0h4.133l9.017,13.226h0.15V0
	h3.758V18.261z"/>
<g display="none">
	<path display="inline" fill="#00FF4E" d="M126.471,267.37l2.254-1.954c1.729,1.277,4.058,2.18,6.388,2.18
		c2.93,0,4.584-1.053,4.584-2.555c0-1.654-1.654-2.18-3.833-2.932l-3.307-1.052c-2.33-0.751-4.884-2.104-4.884-4.734
		c0-2.855,3.306-5.034,7.89-5.034c2.78,0,5.485,0.901,7.289,2.329l-2.028,1.804c-1.504-0.977-3.156-1.653-5.336-1.653
		c-2.479,0-4.058,0.901-4.058,2.329c0,1.578,1.954,2.18,3.908,2.705l3.306,1.053c2.855,0.901,4.885,2.254,4.885,4.885
		c0,2.93-3.231,5.26-8.492,5.26C131.731,270,128.65,269.023,126.471,267.37z"/>
</g>
<g>
	<g>
		<g>
			<g>
				<circle opacity="0.1" fill="#00FF4E" enable-background="new    " cx="135.038" cy="135.038" r="100.095"/>
				<g>
					<g>
						<path opacity="0.6" fill="#00FF4E" enable-background="new    " d="M134.812,38.7v17.058c21.868,0,41.706,8.867,56.059,23.22
							l12.023-12.023C185.461,49.446,161.339,38.7,134.812,38.7z"/>
						<path opacity="0.15" fill="#00FF4E" enable-background="new    " d="M214.092,135.038h17.058l0,0
							c0-26.527-10.821-50.648-28.255-68.083l-12.023,12.023C205.225,93.332,214.092,113.17,214.092,135.038L214.092,135.038z"/>
						<path opacity="0.15" fill="#00FF4E" enable-background="new    " d="M162.616,209.207c-8.642,3.23-18.035,5.109-27.804,5.109
							c-43.735,0-79.279-35.544-79.279-79.279H38.475c0,53.128,43.209,96.337,96.337,96.337c11.874,0,23.295-2.18,33.816-6.162
							L162.616,209.207z"/>
						<path opacity="0.15" fill="#00FF4E" enable-background="new    " d="M79.354,78.453c14.353-14.052,33.891-22.77,55.458-22.77
							l0,0V38.7l0,0c-26.226,0-50.047,10.521-67.406,27.579L79.354,78.453z"/>
						<path opacity="0.45" fill="#00FF4E" enable-background="new    " d="M38.475,135.038L38.475,135.038h17.059l0,0
							c0-22.168,9.167-42.157,23.821-56.585L67.406,66.279C49.521,83.788,38.475,108.135,38.475,135.038z"/>
						<path opacity="0.8" fill="#00FF4E" enable-background="new    " d="M214.092,135.038c0,33.891-21.417,62.822-51.476,74.169
							l6.012,16.006c36.446-13.752,62.521-48.995,62.521-90.175H214.092z"/>
					</g>
				</g>
			</g>
			<circle fill="#00FF4E" cx="134.812" cy="135.037" r="3.306"/>
		</g>
	</g>
</g>
<linearGradient id="SVGID_1_" gradientUnits="userSpaceOnUse" x1="134.563" y1="66.2793" x2="134.563" y2="135.0386">
	<stop  offset="0" style="stop-color:#FFFFFF;stop-opacity:0"/>
	<stop  offset="0.0866" style="stop-color:#F7FFFA;stop-opacity:0.0866"/>
	<stop  offset="0.2172" style="stop-color:#E3FFED;stop-opacity:0.2172"/>
	<stop  offset="0.3756" style="stop-color:#C1FFD7;stop-opacity:0.3756"/>
	<stop  offset="0.5558" style="stop-color:#92FFB9;stop-opacity:0.5558"/>
	<stop  offset="0.7544" style="stop-color:#55FF92;stop-opacity:0.7544"/>
	<stop  offset="0.9654" style="stop-color:#0DFF63;stop-opacity:0.9654"/>
	<stop  offset="1" style="stop-color:#00FF5B"/>
</linearGradient>
<polygon fill="url(#SVGID_1_)" points="172.328,66.279 134.564,135.039 96.799,66.279 "/>
</svg>
